# xmcd CD database file
#
# Track frame offsets:
#	150
#	19921
#	34786
#	50874
#	66557
#	85535
#	107235
#	123297
#	149354
#	171557
#	186406
#	202191
#
# Disc length: 2902 seconds
#
# Revision: 0
# Processed by: cddbd v1.5.2PL0 Copyright (c) Steve Scherf et al.
# Submitted via: CDex 1.51
#
DISCID=bc0b540c
DTITLE=Jazz Express - Way Down Yonder In New Orleans
DYEAR=1997
DGENRE=Jazz
TTITLE0=Big Butter and Egg Man
TTITLE1=How Come You Do Me Like You Do
TTITLE2=Way Down Yonder In New Orleans
TTITLE3=The Sheik Of Araby
TTITLE4=You Took Advantage Of Me
TTITLE5=It Had To Be You
TTITLE6=I Never Knew
TTITLE7=Body And Soul
TTITLE8=On The Sunny Side Of The Street
TTITLE9=I've Found A New Baby
TTITLE10=Sunday
TTITLE11=Basin Street Blues
EXTD=YEAR: 1997
EXTT0=
EXTT1=
EXTT2=
EXTT3=
EXTT4=
EXTT5=
EXTT6=
EXTT7=
EXTT8=
EXTT9=
EXTT10=
EXTT11=
PLAYORDER=
